<?xml version="1.0" standalone="no"?>
<!DOCTYPE svg PUBLIC "-//W3C//DTD SVG 20010904//EN"
 "http://www.w3.org/TR/2001/REC-SVG-20010904/DTD/svg10.dtd">
<svg version="1.0" xmlns="http://www.w3.org/2000/svg"
 width="1024.000000pt" height="1024.000000pt" viewBox="0 0 1024.000000 1024.000000"
 preserveAspectRatio="xMidYMid meet">

<g transform="translate(0.000000,1024.000000) scale(0.100000,-0.100000)"
fill="#000000" stroke="none">
<path d="M5015 7944 c-238 -18 -449 -61 -645 -131 -467 -168 -868 -483 -1111
-873 -162 -262 -273 -584 -309 -903 -14 -120 -14 -399 0 -513 28 -229 92 -449
185 -640 59 -121 101 -169 159 -180 54 -10 56 -9 636 334 232 137 253 153 274
197 23 48 20 88 -13 163 -67 154 -92 267 -92 426 0 137 18 240 61 352 118 307
363 523 698 616 67 19 103 22 272 22 233 0 292 -13 465 -98 129 -64 247 -155
325 -252 100 -123 118 -140 160 -153 72 -21 77 -19 495 247 382 244 403 258
427 306 40 79 12 140 -153 331 -288 334 -670 566 -1114 679 -197 50 -540 83
-720 70z m363 -23 c37 -5 108 -15 157 -21 135 -18 226 -41 425 -107 73 -24
361 -161 397 -189 10 -8 65 -47 123 -88 173 -122 327 -273 462 -454 68 -90 81
-138 51 -193 -19 -34 -108 -98 -335 -243 -51 -33 -151 -98 -223 -144 -160
-105 -275 -165 -312 -165 -52 0 -101 32 -147 97 -59 82 -201 216 -273 257 -32
18 -65 37 -73 44 -25 20 -170 74 -260 96 -112 29 -358 31 -465 5 -38 -10 -81
-20 -95 -23 -14 -3 -65 -24 -115 -45 -49 -22 -98 -41 -107 -42 -10 -1 -21 -6
-25 -11 -5 -4 -2 -5 5 -1 6 4 12 5 12 3 0 -2 -25 -21 -55 -41 -69 -45 -181
-151 -233 -219 -81 -106 -158 -270 -192 -412 -18 -71 -22 -247 -9 -330 16
-101 44 -199 79 -274 39 -82 47 -138 27 -177 -27 -52 -15 -44 -457 -304 -69
-41 -169 -100 -223 -133 -107 -63 -179 -97 -205 -97 -32 1 -86 35 -104 65 -72
118 -186 401 -174 432 3 7 1 13 -3 13 -9 0 -48 150 -57 217 -48 377 -22 714
80 1023 93 285 194 471 372 689 241 295 652 569 1014 676 67 20 155 44 182 49
12 2 46 10 73 16 138 34 534 51 683 31z"/>
<path d="M5955 5986 c-29 -13 -315 -174 -630 -356 -88 -51 -286 -165 -440
-253 -608 -347 -716 -410 -712 -413 2 -2 95 48 206 111 112 63 206 115 210
115 4 0 13 6 19 12 7 7 42 29 77 48 35 19 177 100 316 180 139 80 305 175 368
211 64 36 224 128 355 204 147 85 253 139 276 142 78 11 140 -55 125 -133 -10
-54 -58 -97 -255 -229 -179 -119 -187 -124 -175 -105 6 9 4 11 -4 6 -7 -5 -10
-10 -7 -14 7 -7 -64 -57 -282 -202 -96 -63 -178 -114 -183 -113 -5 2 -8 -1 -6
-5 2 -9 -24 -28 -368 -260 -110 -75 -235 -160 -279 -190 -78 -53 -367 -248
-398 -267 -8 -5 -60 -40 -114 -76 -252 -169 -280 -170 -435 -17 -66 64 -88 93
-93 120 -14 76 -5 83 284 248 264 150 350 201 350 206 0 5 -143 -70 -165 -87
-5 -4 -91 -53 -190 -109 -245 -139 -271 -156 -285 -190 -24 -57 -6 -96 87
-192 47 -48 100 -94 118 -102 51 -25 121 -20 174 10 53 31 647 428 1061 709
157 107 375 255 485 329 455 307 631 429 657 456 30 32 44 85 34 127 -4 14
-22 41 -41 60 -37 37 -84 43 -140 19z"/>
<path d="M6571 5599 c-12 -5 -190 -113 -393 -241 -323 -202 -372 -236 -385
-266 -19 -45 -10 -80 42 -172 54 -97 90 -187 116 -297 18 -76 21 -108 16 -233
-6 -161 -25 -251 -81 -382 -19 -43 -30 -75 -25 -72 23 14 78 163 105 284 19
82 21 307 4 381 -25 108 -60 203 -114 305 -43 80 -56 115 -56 148 0 53 9 61
155 151 61 38 133 83 160 100 28 18 79 50 115 72 36 22 94 58 130 81 228 145
252 155 309 124 41 -23 131 -144 183 -247 9 -16 25 -48 36 -70 54 -106 127
-325 150 -450 51 -276 49 -509 -8 -834 -18 -102 -105 -355 -165 -477 -84 -170
-255 -421 -277 -407 -7 3 -8 1 -4 -5 7 -12 -54 -84 -158 -186 -167 -162 -472
-377 -512 -362 -8 3 -12 1 -9 -4 13 -21 -258 -134 -431 -180 -114 -30 -272
-58 -377 -67 -131 -11 -367 -8 -451 6 -361 61 -515 110 -786 249 -125 65 -142
76 -132 87 4 5 2 5 -5 1 -21 -12 -311 209 -305 233 1 7 -2 10 -7 7 -12 -8
-202 192 -275 288 -161 214 -155 251 65 381 74 43 188 111 254 150 66 40 172
102 235 140 63 37 137 77 165 87 49 19 50 19 10 13 -22 -4 -53 -14 -70 -24
-366 -216 -659 -390 -693 -411 -130 -84 -120 -163 48 -373 413 -520 1008 -822
1683 -853 324 -16 703 63 1009 209 434 206 817 582 1031 1012 132 266 199 533
213 850 18 398 -90 802 -298 1117 -58 87 -80 112 -113 128 -45 22 -67 24 -104
9z"/>
<path d="M3935 3916 c36 -16 151 -133 147 -150 -2 -6 -1 -9 2 -5 3 3 34 -22
69 -55 35 -34 97 -83 138 -110 41 -27 85 -57 99 -66 37 -25 200 -89 257 -100
260 -54 396 -53 599 5 238 69 460 235 582 436 40 66 23 52 -34 -27 -179 -252
-432 -400 -742 -434 -205 -22 -470 28 -642 123 -119 66 -181 115 -315 253
-107 109 -147 144 -165 144 -24 -1 -23 -1 5 -14z"/>
</g>
</svg>
